<svg width="113" height="113" viewBox="0 0 113 113" fill="none" xmlns="http://www.w3.org/2000/svg">
<path d="M56.5 0C87.7049 0 113 25.2951 113 56.5C113 87.7049 87.7049 113 56.5 113C25.2951 113 0 87.7049 0 56.5C0 25.2951 25.2951 0 56.5 0ZM56.5 28.25C55.476 28.25 54.4867 28.6209 53.7149 29.2939C52.9432 29.967 52.4413 30.8967 52.3021 31.9112L52.2625 32.4875V52.2625H32.4875C31.4139 52.2628 30.3804 52.6707 29.5959 53.4036C28.8114 54.1366 28.3343 55.14 28.2612 56.2112C28.188 57.2823 28.5241 58.3413 29.2016 59.1741C29.8792 60.007 30.8476 60.5516 31.9112 60.698L32.4875 60.7375H52.2625V80.5125C52.2628 81.5861 52.6707 82.6196 53.4036 83.4041C54.1366 84.1886 55.14 84.6657 56.2112 84.7388C57.2823 84.812 58.3413 84.4759 59.1741 83.7984C60.007 83.1208 60.5516 82.1524 60.698 81.0888L60.7375 80.5125V60.7375H80.5125C81.5861 60.7372 82.6196 60.3293 83.4041 59.5964C84.1886 58.8634 84.6657 57.86 84.7388 56.7888C84.812 55.7177 84.4759 54.6587 83.7984 53.8259C83.1208 52.993 82.1524 52.4484 81.0888 52.3021L80.5125 52.2625H60.7375V32.4875C60.7375 31.3636 60.291 30.2858 59.4964 29.4911C58.7017 28.6964 57.6239 28.25 56.5 28.25Z" fill="#E09EA5"/>
</svg>
