<svg width="18" height="18" viewBox="0 0 18 18" fill="none" xmlns="http://www.w3.org/2000/svg">
<path d="M17 8.83C16.7348 8.83 16.4804 8.93536 16.2929 9.12289C16.1054 9.31043 16 9.56478 16 9.83V15.4C16 15.5591 15.9368 15.7117 15.8243 15.8243C15.7117 15.9368 15.5591 16 15.4 16H2.6C2.44087 16 2.28826 15.9368 2.17574 15.8243C2.06321 15.7117 2 15.5591 2 15.4V2.6C2 2.44087 2.06321 2.28826 2.17574 2.17574C2.28826 2.06321 2.44087 2 2.6 2H12.17C12.4352 2 12.6896 1.89464 12.8771 1.70711C13.0646 1.51957 13.17 1.26522 13.17 1C13.17 0.734784 13.0646 0.48043 12.8771 0.292893C12.6896 0.105357 12.4352 0 12.17 0H2.6C1.91125 0.00263388 1.25146 0.277407 0.764432 0.764432C0.277407 1.25146 0.00263388 1.91125 0 2.6V15.4C0.00263388 16.0888 0.277407 16.7485 0.764432 17.2356C1.25146 17.7226 1.91125 17.9974 2.6 18H15.4C16.0888 17.9974 16.7485 17.7226 17.2356 17.2356C17.7226 16.7485 17.9974 16.0888 18 15.4V9.83C18 9.56478 17.8946 9.31043 17.7071 9.12289C17.5196 8.93536 17.2652 8.83 17 8.83Z" fill="#E09EA5"/>
<path d="M5.66869 8.98419C5.48103 8.81543 5.23651 8.72386 4.98416 8.72786C4.73181 8.73186 4.49031 8.83113 4.3081 9.00575C4.12588 9.18037 4.01643 9.41743 4.00171 9.66938C3.98698 9.92133 4.06806 10.1695 4.22869 10.3642L6.44869 12.6942C6.54163 12.7917 6.65332 12.8694 6.77705 12.9227C6.90077 12.976 7.03398 13.0037 7.16869 13.0042C7.30268 13.005 7.43546 12.9788 7.55914 12.9273C7.68283 12.8757 7.7949 12.7999 7.88869 12.7042L14.6687 5.70419C14.7606 5.60964 14.833 5.49791 14.8818 5.37537C14.9305 5.25284 14.9546 5.12191 14.9528 4.99005C14.9509 4.85819 14.9231 4.72799 14.8709 4.60688C14.8188 4.48577 14.7432 4.37612 14.6487 4.28419C14.5541 4.19227 14.4424 4.11986 14.3199 4.07112C14.1973 4.02238 14.0664 3.99824 13.9345 4.0001C13.8027 4.00196 13.6725 4.02977 13.5514 4.08194C13.4303 4.13412 13.3206 4.20964 13.2287 4.30419L7.17869 10.5642L5.66869 8.98419Z" fill="#E09EA5"/>
</svg>
