<svg width="113" height="113" viewBox="0 0 113 113" fill="none" xmlns="http://www.w3.org/2000/svg">
<path d="M56.5 0C87.7445 0 113 25.2555 113 56.5C113 87.7445 87.7445 113 56.5 113C25.2555 113 0 87.7445 0 56.5C0 25.2555 25.2555 0 56.5 0ZM84.75 28.25H70.625L64.975 22.6H48.025L42.375 28.25H28.25V39.55H84.75V28.25ZM39.55 90.4H73.45C74.9485 90.4 76.3856 89.8047 77.4452 88.7452C78.5047 87.6856 79.1 86.2485 79.1 84.75V45.2H33.9V84.75C33.9 86.2485 34.4953 87.6856 35.5548 88.7452C36.6144 89.8047 38.0515 90.4 39.55 90.4Z" fill="#E09EA5"/>
</svg>
