<svg width="104" height="84" viewBox="0 0 104 84" fill="none" xmlns="http://www.w3.org/2000/svg">
<path d="M30.8953 1.19841C32.8859 2.92312 33.0484 5.87282 31.2406 7.79003L16.6237 23.3532C15.728 24.2866 14.4645 24.8505 13.128 24.7143C11.7914 24.9282 10.4995 24.4227 9.55297 23.3532L1.42777 15.5755C-0.475922 13.9228 -0.475922 10.9672 1.42777 9.1453C3.33125 7.32337 6.41875 7.32337 8.32203 9.1453L12.8131 13.4367L24.0094 1.54452C25.7969 -0.370743 28.8844 -0.526297 30.8953 1.19841ZM30.8953 32.3171C32.8859 34.0282 33.0484 36.9837 31.2406 38.9087L16.6237 54.4641C15.728 55.3974 14.4645 55.9613 13.128 55.8252C11.7914 56.0391 10.4995 55.5336 9.55297 54.4641L1.42777 46.6864C-0.475922 45.0336 -0.475922 42.0781 1.42777 40.2503C3.33125 38.442 6.41875 38.442 8.32203 40.2503L12.8131 44.5475L24.0094 32.6476C25.7969 30.7421 28.8844 30.5865 30.8953 32.3171ZM45.5 12.445C45.5 9.00919 48.4047 6.22282 52 6.22282H97.5C101.095 6.22282 104 9.00919 104 12.445C104 15.8866 101.095 18.6672 97.5 18.6672H52C48.4047 18.6672 45.5 15.8866 45.5 12.445ZM45.5 43.5559C45.5 40.1142 48.4047 37.3337 52 37.3337H97.5C101.095 37.3337 104 40.1142 104 43.5559C104 46.9975 101.095 49.778 97.5 49.778H52C48.4047 49.778 45.5 46.9975 45.5 43.5559ZM32.5 74.6667C32.5 71.2251 35.4047 68.4446 39 68.4446H97.5C101.095 68.4446 104 71.2251 104 74.6667C104 78.1084 101.095 80.8889 97.5 80.8889H39C35.4047 80.8889 32.5 78.1084 32.5 74.6667ZM0 74.6667C0 69.514 4.36516 65.3335 9.75 65.3335C15.1348 65.3335 19.5 69.514 19.5 74.6667C19.5 79.8195 15.1348 84 9.75 84C4.36516 84 0 79.8195 0 74.6667Z" fill="#E09EA5"/>
</svg>
