<svg width="18" height="18" viewBox="0 0 18 18" fill="none" xmlns="http://www.w3.org/2000/svg">
<path d="M17 8.83C16.7348 8.83 16.4804 8.93536 16.2929 9.12289C16.1054 9.31043 16 9.56478 16 9.83V15.4C16 15.5591 15.9368 15.7117 15.8243 15.8243C15.7117 15.9368 15.5591 16 15.4 16H2.6C2.44087 16 2.28826 15.9368 2.17574 15.8243C2.06321 15.7117 2 15.5591 2 15.4V2.6C2 2.44087 2.06321 2.28826 2.17574 2.17574C2.28826 2.06321 2.44087 2 2.6 2H12.17C12.4352 2 12.6896 1.89464 12.8771 1.70711C13.0646 1.51957 13.17 1.26522 13.17 1C13.17 0.734784 13.0646 0.48043 12.8771 0.292893C12.6896 0.105357 12.4352 0 12.17 0H2.6C1.91125 0.00263388 1.25146 0.277407 0.764432 0.764432C0.277407 1.25146 0.00263388 1.91125 0 2.6V15.4C0.00263388 16.0888 0.277407 16.7485 0.764432 17.2356C1.25146 17.7226 1.91125 17.9974 2.6 18H15.4C16.0888 17.9974 16.7485 17.7226 17.2356 17.2356C17.7226 16.7485 17.9974 16.0888 18 15.4V9.83C18 9.56478 17.8946 9.31043 17.7071 9.12289C17.5196 8.93536 17.2652 8.83 17 8.83Z" fill="#E09EA5"/>
</svg>
